<?xml version="1.0" standalone="no"?><svg xmlns="http://www.w3.org/2000/svg" viewBox="0 0 1440 320"><path fill="#ffc03d" fill-opacity="1" d="M0,96L40,112C80,128,160,160,240,165.3C320,171,400,149,480,133.3C560,117,640,107,720,122.7C800,139,880,181,960,165.3C1040,149,1120,75,1200,42.7C1280,11,1360,21,1400,26.7L1440,32L1440,320L1400,320C1360,320,1280,320,1200,320C1120,320,1040,320,960,320C880,320,800,320,720,320C640,320,560,320,480,320C400,320,320,320,240,320C160,320,80,320,40,320L0,320Z"></path></svg>